# xmcd CD database file
#
# Track frame offsets:
#	150
#	11611
#	28797
#	47868
#	68861
#	81536
#	95863
#	121314
#	141871
#	156786
#	172754
#
# Disc length: 2454 seconds
#
# Revision: 0
# Processed by: cddbd v1.5.2PL0 Copyright (c) Steve Scherf et al.
# Submitted via: CDex 1.51
#
DISCID=9409940b
DTITLE=Philippe De Sousa - Boîte à Petits
DYEAR=2004
DGENRE=Jazz
TTITLE0=Etude pour boite à petits
TTITLE1=Carrossel
TTITLE2=O Tempo
TTITLE3=O Escaravelho
TTITLE4=Balada
TTITLE5=Fretless
TTITLE6=Serpentina
TTITLE7=Corrida
TTITLE8=A Minha Marchinha
TTITLE9=Zurrapa
TTITLE10=Boite à petits
EXTD=YEAR: 2004
EXTT0=
EXTT1=
EXTT2=
EXTT3=
EXTT4=
EXTT5=
EXTT6=
EXTT7=
EXTT8=
EXTT9=
EXTT10=
PLAYORDER=
